<?xml version="1.0"?><svg xmlns="http://www.w3.org/2000/svg"  viewBox="0 0 50 50" width="50px" height="50px">    <path d="M4,10v30c0,3.314,2.686,6,6,6h30c3.314,0,6-2.686,6-6V10c0-3.314-2.686-6-6-6H10C6.686,4,4,6.686,4,10z M41.98,34h-4.564 l-2.944-6l-3.056,6H23V21.5c0-0.828-0.672-1.5-1.5-1.5S20,20.672,20,21.5V34h-4V21.5c0-0.828-0.672-1.5-1.5-1.5S13,20.672,13,21.5 V34H9V17h4v0.698C13.735,17.276,14.713,17,16,17c1.468,0,2.468,0.599,3.101,1.398C19.864,17.612,21.09,17,23,17c2.935,0,4,2.393,4,4 v12.25l4.417-7.789L27,17h4.667l2.863,6.125L37.5,17H42l-4.167,8.423L41.98,34z"/></svg>